:SAMPLES-PER-SECOND 30
:FULLY-SPECIFIED
:DEGREES
321
root  -5.18601 40.5036 76.6696 -4.47626 -4.26972 1.04469
RightUpLeg  -0.634696 -0.542256 0.074403
RightLeg  4.26727 0.32271 -0.885455
RightFoot  0.378322 -0.0255346 0.134114
RightToes  5.82077e-011 -3.18055e-015 -2.98177e-016
Spine  -3.51457 0.192564 -4.62047
Spine1  13.7304 -1.08215 5.11662
HEad  -10.7522 7.65747 -3.8059
LeftShoulder1  -3.88251e-019 9.70628e-020 -3.87848e-018
LeftArm  -25.6279 51.4393 -69.9649
LeftForeArm  -8.11883 -11.414 -3.63567
LeftHand  -0.521152 -1.98277 8.84445
RightShoulder  8.00068 10.7945 37.2958
RightArm  13.6195 -49.2801 5.22159
RightForeArm  -1.52815 16.2729 -6.37868
RightHand  -0.435602 -0.761628 -10.5667
LeftUpLeg  0.22438 -5.92376 -7.89863
LeftLeg  5.06222 7.79923 4.37793
LeftFoot  -1.87059 -0.29546 2.96103
LeftToes  1.39127e-010 -3.60802e-011 -7.31315e-011
322
root  -5.28219 40.5156 76.7313 -4.18955 -4.49794 1.01921
RightUpLeg  -0.74043 -0.461806 0.266082
RightLeg  4.0636 0.460286 -0.775643
RightFoot  0.408239 -0.0159664 0.063368
RightToes  5.82077e-011 -3.18055e-015 -2.98177e-016
Spine  -3.86092 0.231787 -4.28505
Spine1  14.5125 -1.03758 5.05527
HEad  -11.6755 7.39336 -3.39287
LeftShoulder1  -3.88251e-019 9.70628e-020 -3.87848e-018
LeftArm  -26.3728 50.937 -70.9163
LeftForeArm  -6.47538 -9.28408 -3.75191
LeftHand  -0.440161 -1.33866 8.21786
RightShoulder  7.96822 10.7821 37.164
RightArm  12.7619 -48.6939 6.87668
RightForeArm  -2.85344 16.6179 -6.71097
RightHand  -0.530707 -0.322889 -11.8288
LeftUpLeg  0.062818 -5.89668 -7.69601
LeftLeg  5.02291 7.95905 4.38043
LeftFoot  -1.93469 -0.268269 2.68613
LeftToes  1.39127e-010 -3.60802e-011 -7.31315e-011
323
root  -5.37183 40.5122 76.7708 -4.01688 -4.80748 1.07039
RightUpLeg  -0.939062 -0.414532 0.39386
RightLeg  4.18111 0.672222 -0.800532
RightFoot  0.182865 0.000151248 -0.0719509
RightToes  5.82077e-011 -3.18055e-015 -2.98177e-016
Spine  -3.29767 0.33007 -3.8544
Spine1  14.142 -0.848467 4.78391
HEad  -11.9724 7.27955 -3.11226
LeftShoulder1  -3.88251e-019 9.70628e-020 -3.87848e-018
LeftArm  -27.0805 51.1499 -71.6707
LeftForeArm  -5.67752 -8.03417 -3.78088
LeftHand  -0.380457 -0.753002 7.80448
RightShoulder  7.94989 10.7706 37.0998
RightArm  12.6037 -47.9356 8.01398
RightForeArm  -3.68362 16.7542 -6.64396
RightHand  -0.621423 0.174628 -12.676
LeftUpLeg  -0.104661 -5.83942 -7.54247
LeftLeg  5.20132 8.1635 4.37727
LeftFoot  -2.08952 -0.246631 2.45847
LeftToes  1.39127e-010 -3.60802e-011 -7.31315e-011
324
root  -5.46193 40.5012 76.7906 -3.86842 -5.19709 1.10311
RightUpLeg  -1.19132 -0.248084 0.599636
RightLeg  4.31245 0.806371 -0.916175
RightFoot  -0.0087277 0.0187119 -0.240174
RightToes  5.82077e-011 -3.18055e-015 -2.98177e-016
Spine  -2.30861 0.481301 -3.29992
Spine1  13.1849 -0.540475 4.29728
HEad  -11.8542 7.17065 -2.94662
LeftShoulder1  -3.88251e-019 9.70628e-020 -3.87848e-018
LeftArm  -27.5872 51.829 -72.1118
LeftForeArm  -5.35865 -7.73207 -3.73484
LeftHand  -0.339954 -0.383175 7.44039
RightShoulder  7.96449 10.7712 37.1702
RightArm  12.9347 -47.0844 8.79596
RightForeArm  -4.18142 16.9305 -6.55303
RightHand  -0.629629 0.228877 -12.7136
LeftUpLeg  -0.32157 -5.75505 -7.36577
LeftLeg  5.4814 8.41916 4.42151
LeftFoot  -2.315 -0.228662 2.26945
LeftToes  1.39127e-010 -3.60802e-011 -7.31315e-011
325
root  -5.54895 40.4925 76.8015 -3.68806 -5.56714 1.12168
RightUpLeg  -1.48412 -0.102097 0.785759
RightLeg  4.45274 1.00366 -0.976201
RightFoot  -0.125951 0.0267906 -0.322998
RightToes  5.82077e-011 -3.18055e-015 -2.98177e-016
Spine  -1.94603 0.698326 -2.67614
Spine1  12.9978 -0.159645 3.72857
HEad  -11.7626 6.80597 -2.76372
LeftShoulder1  -3.88251e-019 9.70628e-020 -3.87848e-018
LeftArm  -27.6856 52.21 -72.3558
LeftForeArm  -4.95974 -7.92276 -3.71742
LeftHand  -0.34116 -0.474718 7.34426
RightShoulder  7.94628 10.7725 37.0776
RightArm  12.9628 -46.3802 9.95922
RightForeArm  -4.3711 17.2229 -6.72254
RightHand  -0.598674 0.06627 -12.438
LeftUpLeg  -0.574388 -5.72209 -7.214
LeftLeg  5.71375 8.69905 4.52101
LeftFoot  -2.48813 -0.21261 2.10062
LeftToes  1.39127e-010 -3.60802e-011 -7.31315e-011
326
root  -5.62556 40.4872 76.8165 -3.50318 -5.80839 1.18953
RightUpLeg  -1.77768 -0.0981372 0.834639
RightLeg  4.68102 1.26003 -0.962453
RightFoot  -0.342716 0.0258076 -0.312919
RightToes  5.82077e-011 -3.18055e-015 -2.98177e-016
Spine  -2.21473 0.937473 -2.04742
Spine1  13.5642 0.248746 3.11149
HEad  -11.6566 6.23933 -2.50838
LeftShoulder1  -3.88251e-019 9.70628e-020 -3.87848e-018
LeftArm  -27.3861 52.2117 -72.4586
LeftForeArm  -4.42107 -8.31273 -3.78206
LeftHand  -0.38476 -0.932621 7.66153
RightShoulder  7.89433 10.7747 36.8163
RightArm  12.7131 -45.877 11.3673
RightForeArm  -4.30732 17.5526 -7.0526
RightHand  -0.613325 0.189444 -12.4683
LeftUpLeg  -0.780145 -5.76927 -7.16359
LeftLeg  5.82286 8.92706 4.61287
LeftFoot  -2.55702 -0.1986 1.95328
LeftToes  1.39127e-010 -3.60802e-011 -7.31315e-011
327
root  -5.69756 40.4848 76.8436 -3.38178 -5.82716 1.28601
RightUpLeg  -1.93246 -0.1401 0.82899
RightLeg  4.85066 1.30096 -0.96667
RightFoot  -0.590148 0.0238965 -0.293327
RightToes  5.82077e-011 -3.18055e-015 -2.98177e-016
Spine  -2.34947 1.10239 -1.51241
Spine1  13.8801 0.583198 2.5202
HEad  -11.1947 5.65625 -2.24739
LeftShoulder1  -3.88251e-019 9.70628e-020 -3.87848e-018
LeftArm  -26.9389 52.3563 -72.3868
LeftForeArm  -4.03722 -8.98199 -3.85912
LeftHand  -0.419314 -1.20235 7.99819
RightShoulder  7.8692 10.7831 36.6733
RightArm  12.7486 -45.4027 12.3007
RightForeArm  -4.12225 17.8121 -7.28791
RightHand  -0.684526 0.679421 -12.8293
LeftUpLeg  -0.843344 -5.82508 -7.1614
LeftLeg  5.79306 8.96456 4.62691
LeftFoot  -2.56613 -0.186254 1.82346
LeftToes  1.39127e-010 -3.60802e-011 -7.31315e-011
328
root  -5.77845 40.485 76.876 -3.30351 -5.57299 1.34224
RightUpLeg  -1.93292 -0.122738 0.891517
RightLeg  4.86529 0.980372 -1.01953
RightFoot  -0.695184 0.0236188 -0.290479
RightToes  5.82077e-011 -3.18055e-015 -2.98177e-016
Spine  -2.19163 1.17133 -1.18835
Spine1  13.7374 0.765115 2.15992
HEad  -10.3069 5.0474 -2.05822
LeftShoulder1  -3.88251e-019 9.70628e-020 -3.87848e-018
LeftArm  -26.5042 52.7297 -72.2108
LeftForeArm  -3.97808 -9.88877 -3.89988
LeftHand  -0.400877 -0.953027 7.95307
RightShoulder  7.86132 10.7813 36.6385
RightArm  13.2202 -44.9248 12.6596
RightForeArm  -4.11156 18.0338 -7.4269
RightHand  -0.756105 1.16782 -13.1499
LeftUpLeg  -0.834431 -5.83963 -7.10182
LeftLeg  5.6895 8.72663 4.57634
LeftFoot  -2.5644 -0.172371 1.67748
LeftToes  1.39127e-010 -3.60802e-011 -7.31315e-011
329
root  -5.8688 40.4863 76.8933 -3.12916 -5.11655 1.34695
RightUpLeg  -1.99861 -0.0759976 1.00999
RightLeg  4.84085 0.454627 -1.05506
RightFoot  -0.716139 0.0225245 -0.279261
RightToes  5.82077e-011 -3.18055e-015 -2.98177e-016
Spine  -2.07603 1.21406 -1.03562
Spine1  13.4749 0.852309 2.04841
HEad  -9.03943 4.34092 -1.93943
LeftShoulder1  -3.88251e-019 9.70628e-020 -3.87848e-018
LeftArm  -26.0451 52.9657 -72.0382
LeftForeArm  -4.05774 -10.6649 -3.95026
LeftHand  -0.369571 -0.597207 7.78643
RightShoulder  7.82667 10.7651 36.5032
RightArm  14.0058 -44.6354 12.7661
RightForeArm  -4.56489 18.3682 -7.68162
RightHand  -0.764682 1.23878 -13.1585
LeftUpLeg  -0.996705 -5.85785 -6.97233
LeftLeg  5.63397 8.30691 4.54718
LeftFoot  -2.57098 -0.153216 1.4761
LeftToes  1.39127e-010 -3.60802e-011 -7.31315e-011
330
root  -5.95447 40.4877 76.887 -2.80386 -4.60486 1.33373
RightUpLeg  -2.23933 -0.0554503 1.11171
RightLeg  4.8243 -0.0824646 -1.01737
RightFoot  -0.785513 0.0210369 -0.26401
RightToes  5.82077e-011 -3.18055e-015 -2.98177e-016
Spine  -1.95392 1.27209 -0.854012
Spine1  12.9732 0.956636 1.91083
HEad  -7.28078 3.58681 -1.85937
LeftShoulder1  -3.88251e-019 9.70628e-020 -3.87848e-018
LeftArm  -25.565 52.976 -71.8359
LeftForeArm  -3.92495 -11.0793 -4.0268
LeftHand  -0.38185 -0.696507 7.90518
RightShoulder  7.80036 10.759 36.3863
RightArm  15.1433 -44.5303 12.564
RightForeArm  -5.38443 18.8192 -8.08183
RightHand  -0.704515 0.841031 -12.8722
LeftUpLeg  -1.40492 -5.93305 -6.83772
LeftLeg  5.6529 7.87574 4.58482
LeftFoot  -2.57659 -0.12921 1.22376
LeftToes  1.39127e-010 -3.60802e-011 -7.31315e-011
331
root  -6.02844 40.4915 76.8829 -2.5113 -4.04293 1.32123
RightUpLeg  -2.36657 -0.0806825 1.17046
RightLeg  4.67375 -0.636423 -0.909885
RightFoot  -0.872132 0.0207568 -0.261138
RightToes  5.82077e-011 -3.18055e-015 -2.98177e-016
Spine  -1.77099 1.30671 -0.629573
Spine1  12.3895 1.04564 1.72111
HEad  -5.10197 2.85303 -1.85985
LeftShoulder1  -3.88251e-019 9.70628e-020 -3.87848e-018
LeftArm  -25.2318 52.9022 -71.5926
LeftForeArm  -3.48251 -11.3415 -4.06787
LeftHand  -0.419994 -1.10742 8.12884
RightShoulder  7.82079 10.7695 36.4642
RightArm  16.3656 -44.349 12.0353
RightForeArm  -6.06765 19.1933 -8.42145
RightHand  -0.64747 0.453506 -12.5926
LeftUpLeg  -1.74581 -6.04963 -6.74626
LeftLeg  5.60319 7.42254 4.63364
LeftFoot  -2.54073 -0.106822 0.988435
LeftToes  1.39127e-010 -3.60802e-011 -7.31315e-011
332
root  -6.09767 40.5013 76.9055 -2.43527 -3.34452 1.31394
RightUpLeg  -2.1353 -0.154309 1.19919
RightLeg  4.37965 -1.27526 -0.782864
RightFoot  -0.919119 0.0203479 -0.256946
RightToes  5.82077e-011 -3.18055e-015 -2.98177e-016
Spine  -1.86181 1.28719 -0.564355
Spine1  12.4657 1.011 1.78184
HEad  -2.80767 2.16984 -2.01643
LeftShoulder1  -3.88251e-019 9.70628e-020 -3.87848e-018
LeftArm  -25.0929 52.698 -71.4208
LeftForeArm  -3.05817 -11.748 -4.06814
LeftHand  -0.430038 -1.2795 8.10079
RightShoulder  7.83429 10.7682 36.5339
RightArm  17.0225 -43.9898 11.6789
RightForeArm  -6.25597 19.3432 -8.54865
RightHand  -0.670303 0.616314 -12.689
LeftUpLeg  -1.74898 -6.15461 -6.69583
LeftLeg  5.39956 6.82826 4.62906
LeftFoot  -2.44416 -0.0928384 0.841473
LeftToes  1.39127e-010 -3.60802e-011 -7.31315e-011
333
root  -6.16584 40.509 76.9289 -2.46649 -2.63394 1.32988
RightUpLeg  -1.86191 -0.238084 1.2123
RightLeg  4.22473 -1.89141 -0.722212
RightFoot  -0.992848 0.0192361 -0.245548
RightToes  5.82077e-011 -3.18055e-015 -2.98177e-016
Spine  -2.04713 1.23312 -0.610792
Spine1  12.8975 0.912305 1.95223
HEad  -0.336025 1.66253 -2.26957
LeftShoulder1  -3.88251e-019 9.70628e-020 -3.87848e-018
LeftArm  -24.9018 52.4275 -71.2528
LeftForeArm  -2.9876 -12.2974 -4.09725
LeftHand  -0.419375 -1.18214 8.02304
RightShoulder  7.82004 10.7571 36.4882
RightArm  16.9976 -43.5726 11.6867
RightForeArm  -6.00118 19.2545 -8.42116
RightHand  -0.756606 1.18014 -13.1324
LeftUpLeg  -1.64027 -6.22384 -6.66235
LeftLeg  5.19281 6.20257 4.58992
LeftFoot  -2.33196 -0.0859428 0.769005
LeftToes  1.39127e-010 -3.60802e-011 -7.31315e-011
